<?xml version="1.0" standalone="no"?>
<!DOCTYPE svg PUBLIC "-//W3C//DTD SVG 1.1//EN" "http://www.w3.org/Graphics/SVG/1.1/DTD/svg11.dtd" >
<svg xmlns="http://www.w3.org/2000/svg">
<metadata>Generated by IcoMoon</metadata>
<defs>
<font id="icomoon" horiz-adv-x="1024">
<font-face units-per-em="1024" ascent="960" descent="-64" />
<missing-glyph horiz-adv-x="1024" />
<glyph unicode="&#x20;" horiz-adv-x="512" d="" />
<glyph unicode="&#xe900;" glyph-name="ic-bussiness" horiz-adv-x="1138" d="M762.311 789.333h125.156v-853.333h-637.156v853.333h125.156v119.125c38.684 17.977 100.58 51.541 193.422 51.541s154.738-33.564 193.422-51.541v-119.125zM694.044 865.337c-30.379 13.084-73.842 26.396-125.156 26.396s-94.777-13.312-125.156-26.396v-76.004h250.311v76.004zM113.778 789.333h56.889v-853.333h-56.889c-62.578 0-113.778 51.2-113.778 113.778v625.778c0 62.578 51.2 113.778 113.778 113.778zM1137.778 675.556v-625.778c0-62.578-51.2-113.778-113.778-113.778h-56.889v853.333h56.889c62.578 0 113.778-51.2 113.778-113.778z" />
<glyph unicode="&#xe901;" glyph-name="ic-cinema" horiz-adv-x="1434" d="M1287.314 813.714v-146.286h146.286v-146.286h-146.286v-146.286h146.286v-146.286h-146.286v-146.286h146.286v-87.771c0-32.329-26.185-58.514-58.514-58.514h-1316.571c-32.329 0-58.514 26.185-58.514 58.514v87.771h146.286v146.286h-146.286v146.286h146.286v146.286h-146.286v146.286h146.286v146.286h-146.286v87.771c0 32.329 26.185 58.514 58.514 58.514h1316.571c32.329 0 58.514-26.185 58.514-58.514v-87.771h-146.286zM921.6 448l-365.714 219.429v-438.857l365.714 219.429z" />
<glyph unicode="&#xe902;" glyph-name="ic-fashion" horiz-adv-x="1048" d="M1047.406 761.417c-4.754-33.524-118.004-790.674-118.004-790.674-6.339-19.139-28.038-34.743-48.274-34.743h-713.874c-20.236 0-41.935 15.604-48.274 34.743 0 0-113.25 757.15-118.126 790.674-4.754 33.524 10.24 57.051 28.282 72.533 18.042 15.604 116.175 89.966 134.583 105.813 18.286 15.848 46.933 20.236 67.17 20.236h586.606c20.236 0 48.884-4.389 67.17-20.236 18.408-15.848 116.541-90.21 134.583-105.813 18.042-15.482 33.036-39.010 28.16-72.533zM773.364 641.585h-112.030c-16.823-84.236-55.101-228.206-137.143-228.206s-120.32 143.97-137.143 228.206h-112.030c8.777-57.783 51.2-337.92 249.173-337.92s240.396 280.137 249.173 337.92zM953.051 752.762l-134.339 140.19h-589.044l-134.339-140.19h857.722z" />
<glyph unicode="&#xe903;" glyph-name="ic-graphic" horiz-adv-x="1320" d="M1272.185 459.048c-64.135-15.36-169.903 94.181-288.876-34.358-94.855-102.669 52.547-202.644 49.583-256.539-3.099-54.029-141.608-231.747-511.731-232.152-343.309-0.404-538.139 213.962-519.949 464.168 15.36 211.806 214.501 458.914 431.966 521.297 278.366 79.764 513.213 31.798 722.324-107.385 213.288-142.013 180.817-339.537 116.682-355.032zM827.419 287.528c0 55.781-45.406 101.053-101.322 101.053-56.051 0-101.457-45.272-101.457-101.053 0-55.916 45.406-101.053 101.457-101.053 55.916 0 101.322 45.137 101.322 101.053z" />
<glyph unicode="&#xe904;" glyph-name="ic-more" d="M971.034 536.276h-370.759v370.759c0 48.728-39.548 52.966-88.276 52.966s-88.276-4.237-88.276-52.966v-370.759h-370.759c-48.728 0-52.966-39.548-52.966-88.276s4.237-88.276 52.966-88.276h370.759v-370.759c0-48.728 39.548-52.966 88.276-52.966s88.276 4.237 88.276 52.966v370.759h370.759c48.728 0 52.966 39.548 52.966 88.276s-4.237 88.276-52.966 88.276z" />
<glyph unicode="&#xe905;" glyph-name="ic-music" horiz-adv-x="796" d="M796.444 846.222v-796.444c0-62.578-51.2-113.778-113.778-113.778h-568.889c-62.578 0-113.778 51.2-113.778 113.778v796.444c0 62.578 51.2 113.778 113.778 113.778h568.889c62.578 0 113.778-51.2 113.778-113.778zM461.483 748.828h-68.38v-418.361c-28.444 10.923-65.195 11.15-101.376-2.048-64.853-23.666-103.538-81.124-86.357-128.341s90.795-69.177 156.558-48.014c67.698 21.618 99.556 56.434 99.556 111.616v296.619c89.429-14.108 89.884-110.137 79.189-141.881-4.096-12.060 3.072-21.049 16.612 0 96.484 150.073-95.801 258.617-95.801 330.411z" />
<glyph unicode="&#xe906;" glyph-name="ic-photography" horiz-adv-x="1280" d="M1280 640v-576c0-70.4-57.6-128-128-128h-1024c-70.4 0-128 57.6-128 128v576c0 70.4 57.6 128 128 128h153.6c21.12 0 43.904 16.384 50.56 36.48l39.68 119.040c6.656 20.096 29.44 36.48 50.56 36.48h435.2c21.12 0 43.904-16.384 50.56-36.48l39.68-119.040c6.656-20.096 29.44-36.48 50.56-36.48h153.6c70.4 0 128-57.6 128-128zM960 384c0 176.768-143.36 320-320 320-176.768 0-320-143.232-320-320s143.232-320 320-320c176.64 0 320 143.232 320 320zM1152 595.328c0 24.704-20.096 44.8-44.8 44.8s-44.8-20.096-44.8-44.8c0-24.832 20.096-44.8 44.8-44.8s44.8 19.968 44.8 44.8zM832 384c0-106.112-86.016-192-192-192-106.112 0-192 85.888-192 192 0 105.984 85.888 192 192 192 105.984 0 192-86.016 192-192z" />
<glyph unicode="&#xe907;" glyph-name="ic-travel" horiz-adv-x="1089" d="M291.404-64h108.936l244.453 435.745h281.164c0 0 163.404 0 163.404 76.255s-163.404 76.255-163.404 76.255h-281.164l-244.453 435.745h-108.936l135.517-435.745h-195.431l-122.553 108.936h-108.936l87.149-185.191-87.149-185.191h108.936l122.553 108.936h195.431l-135.517-435.745z" />
<glyph unicode="&#xe908;" glyph-name="ic-calendar" d="M807.822 766.578h-79.644v193.422h79.644v-193.422zM295.822 766.578h-79.644v193.422h79.644v-193.422zM1024 732.444v-682.667c0-62.578-51.2-113.778-113.778-113.778h-796.444c-62.578 0-113.778 51.2-113.778 113.778v682.667c0 62.578 51.2 113.778 113.778 113.778h51.2v-113.778h182.044v113.778h329.956v-113.778h182.044v113.778h51.2c62.578 0 113.778-51.2 113.778-113.778zM910.222 504.889h-796.444v-455.111h796.444v455.111z" />
<glyph unicode="&#xe909;" glyph-name="ic-comment" horiz-adv-x="1170" d="M1024 960h-877.714c-80.457 0-146.286-65.829-146.286-146.286v-512c0-80.457 65.829-146.286 146.286-146.286h292.571l292.571-219.429v219.429h292.571c80.457 0 146.286 65.829 146.286 146.286v512c0 80.457-65.829 146.286-146.286 146.286z" />
<glyph unicode="&#xe90a;" glyph-name="ic-right" horiz-adv-x="2007" d="M1517.363 630.272h-1517.363v-363.93l1517.158 0.205 0.205-330.547 489.677 512-489.882 512 0.205-329.728z" />
<glyph unicode="&#xe90b;" glyph-name="ic-settings" d="M1024 299.154c-10.606-35.718-24.747-69.851-42.179-101.912-66.316 17.31-120.076-8.655-165.181-53.882-45.227-45.105-59.002-98.865-41.691-165.181-32.061-17.432-66.194-31.573-101.912-42.179-34.621 59.246-97.158 98.499-161.036 98.499s-126.415-39.253-161.036-98.499c-35.718 10.606-69.851 24.747-101.912 42.179 17.31 66.316 3.535 120.076-41.691 165.181-45.105 45.227-98.865 59.002-165.181 41.691-17.432 32.061-31.573 66.194-42.179 101.912 59.124 34.621 98.499 97.158 98.499 161.036s-39.375 114.225-98.499 148.846c10.606 35.718 24.747 69.851 42.179 101.912 66.316-17.31 120.076 8.655 165.181 53.882 45.227 45.105 59.002 98.865 41.691 165.181 32.061 17.432 66.194 31.573 101.912 42.179 34.621-59.246 97.158-98.499 161.036-98.499s126.415 39.253 161.036 98.499c35.718-10.606 69.851-24.747 101.912-42.179-17.31-66.316-3.535-120.076 41.691-165.181 45.105-45.227 98.865-71.192 165.181-53.882 17.432-32.061 31.573-66.194 42.179-101.912-59.124-34.621-98.499-84.968-98.499-148.846s39.375-114.225 98.499-148.846zM734.598 448c0 123.002-99.596 222.72-222.598 222.72s-222.598-99.718-222.598-222.72c0-123.002 99.596-222.72 222.598-222.72s222.598 99.718 222.598 222.72z" />
<glyph unicode="&#xe90c;" glyph-name="ic-fb" d="M1024 448c0-282.773-229.227-512-512-512s-512 229.227-512 512c0 282.773 229.227 512 512 512s512-229.227 512-512zM633.28 690.56h-77.013c-63.68 0-110.080-54.4-110.080-121.28v-46.613h-82.347v-79.253h82.347v-237.973h90.88v237.973h96.213v79.253h-96.213v55.573c0 16 10.133 27.947 19.2 27.947h77.013v84.373z" />
<glyph unicode="&#xe90d;" glyph-name="ic-gp" d="M1024 448c0-282.773-229.227-512-512-512s-512 229.227-512 512c0 282.773 229.227 512 512 512s512-229.227 512-512zM753.493 499.733h-80.853v80.747h-51.2v-80.747h-80.853v-51.2h80.853v-80.853h51.2v80.853h80.853v51.2zM545.387 332.907c0 47.573-32.213 75.84-55.787 96.533-14.4 12.587-26.773 23.467-26.773 34.027 0 10.773 9.067 18.88 20.48 29.227 18.56 16.533 36.16 40.213 36.16 84.907 0 39.253-5.12 65.6-36.48 82.347 3.2 1.707 14.827 2.88 20.587 3.627 16.96 2.347 41.813 5.013 41.813 18.88v2.667h-123.947c-1.173 0-125.333-4.587-125.333-118.293 0-40.213 13.44-69.227 40-86.293 21.653-13.973 46.933-16.107 59.947-16.107 3.2 0 5.76 0.107 7.573 0.213 0 0-4.16-26.987 15.893-53.76h-0.96c-34.773 0-148.053-7.253-148.053-100.373 0-94.827 104.107-99.627 124.907-99.627 1.707 0 2.667 0 2.667 0 0.213 0 1.707 0 4.267 0 13.333 0 48 1.707 80.107 17.28 41.813 20.267 62.933 55.467 62.933 104.747zM496.213 324.053c2.347-37.973-30.080-65.92-78.72-69.44-49.493-3.627-90.133 18.667-92.587 56.427-1.067 18.24 6.933 36.053 22.507 50.24 15.893 14.4 37.76 23.253 61.44 25.067 2.773 0.107 5.547 0.213 8.32 0.213 45.76 0 76.8-26.88 79.040-62.507zM428.373 497.067c-3.307-0.96-6.827-1.387-10.347-1.387-26.773 0-53.333 27.093-63.147 64.427-5.547 21.013-5.12 39.36 1.173 56.96 6.293 17.387 17.387 29.12 31.36 33.067 3.413 0.96 6.933 1.387 10.347 1.387 32.427 0 53.227-13.44 66.027-58.667 12.16-42.773-6.187-87.467-35.413-95.787z" />
<glyph unicode="&#xe90e;" glyph-name="ic-pn" d="M1024 448c0-282.773-229.227-512-512-512s-512 229.227-512 512c0 282.773 229.227 512 512 512s512-229.227 512-512zM719.147 567.573c-14.613 106.56-120.96 160.747-234.133 148.053-89.493-10.027-178.773-82.453-182.507-185.92-2.24-63.253 15.68-110.613 75.84-123.947 26.027 46.080-8.427 56.213-13.867 89.493-21.973 136.533 157.44 229.653 251.413 134.293 64.96-65.92 22.187-268.907-82.667-247.893-100.373 20.16 49.173 181.76-30.933 213.547-65.173 25.707-99.84-78.933-68.907-130.88-18.133-89.387-57.173-173.653-41.28-285.76 51.2 37.12 68.48 108.267 82.56 182.4 25.707-15.573 39.573-31.787 72.32-34.347 121.067-9.387 188.693 120.747 172.16 240.96z" />
<glyph unicode="&#xe90f;" glyph-name="ic-search" d="M1009.742 15.198l-61.051-61.181c-24.109-23.98-63.255-23.98-87.234 0l-246.278 246.278c-59.366-34.609-128.324-54.57-201.948-54.57-221.391 0-413.229 191.838-413.229 413.359 0 221.391 179.524 400.915 400.915 400.915 221.521 0 413.359-191.838 413.359-413.229 0-76.346-21.258-147.508-58.199-208.17l244.853-244.982c24.109-24.109 32.924-54.441 8.814-78.42zM413.229 269.124c153.341 0 277.647 124.306 277.647 277.647 0 153.211-136.62 289.831-289.961 289.831-153.211 0-277.517-124.306-277.517-277.517 0-153.341 136.62-289.961 289.831-289.961z" />
<glyph unicode="&#xe910;" glyph-name="ic-tw" d="M1024 448c0-282.773-229.227-512-512-512s-512 229.227-512 512c0 282.773 229.227 512 512 512s512-229.227 512-512zM770.56 592.747c-18.133-8-37.547-13.44-57.92-15.893 20.8 12.48 36.8 32.32 44.373 55.787-19.52-11.52-41.067-19.947-64.107-24.427-18.347 19.627-44.587 31.787-73.6 31.787-55.68 0-100.8-45.12-100.8-100.8 0-7.893 0.853-15.573 2.56-22.933-83.733 4.16-158.080 44.267-207.787 105.28-8.747-14.827-13.653-32.213-13.653-50.667 0-34.987 17.813-65.813 44.8-83.947-16.533 0.533-32 5.12-45.653 12.587 0-0.427 0-0.747 0-1.173 0-48.96 34.773-89.707 80.853-98.88-8.427-2.347-17.387-3.627-26.56-3.627-6.507 0-12.8 0.64-18.987 1.813 12.907-40 50.133-69.227 94.293-69.973-34.56-27.093-78.080-43.2-125.333-43.2-8.107 0-16.107 0.427-24 1.387 44.587-28.587 97.6-45.333 154.56-45.333 185.493 0 286.933 153.707 286.933 286.933 0 4.373-0.107 8.747-0.32 13.12 19.733 14.187 36.8 32 50.347 52.16z" />
<glyph unicode="&#xe911;" glyph-name="ic-user" d="M801.77 205.726c-134.209 48.912-177.13 90.199-177.13 178.655 0 53.052 40.96 35.731 58.934 132.902 7.517 40.306 43.683 0.545 50.655 92.596 0 36.711-19.826 45.862-19.826 45.862s10.131 54.25 14.053 95.973c4.793 52.071-30.066 186.499-216.456 186.499s-221.358-134.427-216.456-186.499c3.922-41.723 14.053-95.973 14.053-95.973s-19.826-9.151-19.826-45.862c6.972-92.051 43.139-52.289 50.655-92.596 17.974-97.171 58.934-79.85 58.934-132.902 0-88.456-42.921-129.743-177.13-178.655-134.754-49.13-222.23-99.132-222.23-133.229v-114.71h1024v114.71c0 34.097-87.476 84.099-222.23 133.229z" />
<glyph unicode="&#xe912;" glyph-name="ic-close" d="M1024 857.6l-102.4 102.4-409.6-409.6-409.6 409.6-102.4-102.4 409.6-409.6-409.6-409.6 102.4-102.4 409.6 409.6 409.6-409.6 102.4 102.4-409.6 409.6z" />
<glyph unicode="&#xe913;" glyph-name="ic-l-chevron" horiz-adv-x="548" d="M11.907 6.37c-15.836-16.193-15.836-42.27 0-58.344 15.955-16.074 41.793-16.074 57.749 0l466.158 470.802c15.955 16.074 15.955 42.151 0 58.344l-466.158 470.802c-15.955 16.074-41.793 16.074-57.749 0-15.836-16.193-15.836-42.27 0-58.344l425.198-441.63-425.198-441.63z" />
<glyph unicode="&#xe914;" glyph-name="ic-r-chevron" horiz-adv-x="548" d="M11.907 6.37c-15.836-16.193-15.836-42.27 0-58.344 15.955-16.074 41.793-16.074 57.749 0l466.158 470.802c15.955 16.074 15.955 42.151 0 58.344l-466.158 470.802c-15.955 16.074-41.793 16.074-57.749 0-15.836-16.193-15.836-42.27 0-58.344l425.198-441.63-425.198-441.63z" />
<glyph unicode="&#xe915;" glyph-name="ic-arr-down" horiz-adv-x="2304" d="M253.44 957.44h2042.88l-1016.32-1021.44-1026.56 1021.44z" />
<glyph unicode="&#xe916;" glyph-name="ic-down" horiz-adv-x="1365" d="M1201.493 683.52l-588.8-588.8-587.093 588.8 112.64 112.64 474.453-476.16 476.16 476.16 112.64-112.64z" />
<glyph unicode="&#xe917;" glyph-name="ic-rss" d="M274.432 213.845c22.528-22.528 36.181-52.565 36.181-86.699 0-33.451-13.653-64.171-36.181-86.699v0c-22.528-21.845-52.565-35.499-86.699-35.499s-64.853 13.653-86.699 35.499c-22.528 22.528-36.181 52.565-36.181 86.699s13.653 64.171 36.181 86.699v0c21.845 22.528 52.565 36.181 86.699 36.181s64.171-13.653 86.699-36.181zM274.432 213.845v0c0 0 0 0 0 0v0zM101.035 40.448c0 0 0 0 0 0s0 0 0 0v0zM64.853 614.571v-176.811c115.371 0 224.597-45.056 306.517-126.976 81.237-81.92 126.293-191.147 126.976-306.517v0-0.683h177.493c0 168.619-68.949 320.853-179.541 431.445-110.592 111.275-262.827 179.541-431.445 179.541zM64.853 929.28v-176.811c413.013 0 748.203-335.872 748.203-748.885h177.493c0 255.317-103.765 486.741-271.701 653.995-167.253 167.936-398.677 271.701-653.995 271.701z" />
<glyph unicode="&#xe918;" glyph-name="ic-star" horiz-adv-x="1081" d="M550.684 182.898l-306.631-213.333 108.089 357.831-297.529 225.849 373.76 7.396 122.311 352.711 122.88-352.711 373.76-7.396-298.098-225.849 108.089-357.831-306.631 213.333z" />
<glyph unicode="&#xe919;" glyph-name="ic-subscribe" horiz-adv-x="1317" d="M1190.766 841.509c8.777 0 13.897-1.463 13.897-9.509v-699.977c0-8.777-5.12-19.749-13.897-19.749h-1063.497c-8.777 0-16.823 10.971-16.823 19.749v699.977c0 8.046 8.046 9.509 16.823 9.509h1064.96zM1190.766 950.491h-1063.497c-69.486 0-125.806-49.737-125.806-118.491v-699.977c0-68.754 56.32-129.463 125.806-129.463h1063.497c69.486 0 122.88 60.709 122.88 129.463v699.977c0 68.754-53.394 118.491-122.88 118.491v0zM665.6 314.149l-646.583 543.451 54.857 65.097 591.726-496.64 587.337 500.297 54.857-64.366-642.194-547.84zM271.36 265.874l-59.977 59.977 215.771 215.771 59.977-60.709-215.771-215.040zM1034.24 265.874l-215.771 215.040 60.709 60.709 215.771-215.771-60.709-59.977z" />
<glyph unicode="&#xe91a;" glyph-name="ic-up" horiz-adv-x="1365" d="M25.6 207.36l588.8 587.093 587.093-587.093-112.64-112.64-474.453 476.16-476.16-476.16-112.64 112.64z" />
</font>
</defs>
</svg>
